<svg xmlns="http://www.w3.org/2000/svg" width="82" height="25.001" viewBox="0 0 82 25.001">
  <g id="Group_2321" data-name="Group 2321" transform="translate(-378 -544.999)">
    <g id="Light_1px_mail" data-name="Light 1px/mail" transform="translate(378 544.999)">
      <rect id="Light_1px_mail_background" data-name="Light 1px/mail background" width="25" height="25" fill="#fff"/>
      <path id="Combined_Shape" data-name="Combined Shape" d="M17.708,16.667H3.125A3.129,3.129,0,0,1,0,13.541V3.125A3.128,3.128,0,0,1,3.125,0H17.708a3.128,3.128,0,0,1,3.125,3.125V13.541A3.129,3.129,0,0,1,17.708,16.667ZM1.042,3.592v9.95a2.086,2.086,0,0,0,2.083,2.084H17.708a2.086,2.086,0,0,0,2.083-2.084V3.592L11.887,9A2.6,2.6,0,0,1,8.947,9Zm2.083-2.55A2.09,2.09,0,0,0,1.166,2.414L9.534,8.14a1.563,1.563,0,0,0,1.764,0l8.369-5.726a2.09,2.09,0,0,0-1.959-1.372Z" transform="translate(2.083 4.167)"/>
    </g>
    <text id="Inbox" transform="translate(413 564)" font-size="18" font-family="SourceSerifPro-Light, Source Serif Pro" font-weight="300"><tspan x="0" y="0">Inbox</tspan></text>
  </g>
</svg>
