<svg id="Supercharges" xmlns="http://www.w3.org/2000/svg" width="40" height="40" viewBox="0 0 40 40">
  <g id="Rectangle_3524" data-name="Rectangle 3524" fill="#e9edf2" stroke="#fff" stroke-width="1">
    <rect width="40" height="40" rx="5" stroke="none"/>
    <rect x="0.5" y="0.5" width="39" height="39" rx="4.5" fill="none"/>
  </g>
  <g id="Light_1px_zap" data-name="Light 1px/zap" transform="translate(8 8)">
    <rect id="Light_1px_zap_background" data-name="Light 1px/zap background" width="25" height="25" fill="#fff" opacity="0"/>
    <path id="Combined_Shape" data-name="Combined Shape" d="M8.314,20.308a2.17,2.17,0,0,1-1.645-.768,2.029,2.029,0,0,1-.432-1.688l.878-4.945H2.086A2.083,2.083,0,0,1,.491,9.484L7.822.752A2.03,2.03,0,0,1,9.392,0a2.171,2.171,0,0,1,1.645.768,2.028,2.028,0,0,1,.431,1.687L10.591,7.4h5.03a2.083,2.083,0,0,1,1.595,3.423L9.884,19.556A2.03,2.03,0,0,1,8.314,20.308ZM9.4,1.044h0a1.014,1.014,0,0,0-.785.376L1.289,10.154a1.041,1.041,0,0,0,.8,1.711H7.737a.521.521,0,0,1,.513.612l-.987,5.557a1.014,1.014,0,0,0,.216.844,1.086,1.086,0,0,0,.823.384,1.014,1.014,0,0,0,.785-.376l7.332-8.732a1.042,1.042,0,0,0-.8-1.712H9.969a.52.52,0,0,1-.513-.611l.987-5.557a1.014,1.014,0,0,0-.216-.844A1.086,1.086,0,0,0,9.4,1.045Z" transform="translate(3.647 2.346)"/>
  </g>
</svg>
